# xmcd
#
# Track frame offsets:
#	150
#	16267
#	31315
#	50795
#	66537
#	86015
#	99682
#	116282
#	129982
#	149495
#
# Disc length: 2187 seconds
#
# Revision: 0
# Processed by: cddbd v1.4PL0 Copyright (c) Steve Scherf et al.
# Submitted via: EasyCDDAExtractor 4.5.0.2
#
DISCID=8c08890a
DTITLE=Ζερβουδάκης Δημήτρης - Μια ζωή στην ίδια τάξη
DYEAR=1900
DGENRE=Έντεχνο
TTITLE0=Θεωρία και πράξη
TTITLE1=Μεγάλος είναι ο κόσμος
TTITLE2=Όλα έχουν γίνει
TTITLE3=Η άσχετη
TTITLE4=Αποκλεισμένος στη σαλονίκη
TTITLE5=Τοξοβόλη
TTITLE6=Ναυαγός στην αγάπη
TTITLE7=Το χάλι μας
TTITLE8=Ξεχειμωνιάζει
TTITLE9=Σε κατάσταση κινδύνου
EXTD=KLcanislupus©
EXTT0=KLcanislupus©
EXTT1=
EXTT2=
EXTT3=
EXTT4=
EXTT5=
EXTT6=
EXTT7=
EXTT8=
EXTT9=
PLAYORDER=
